<svg width="158" height="77" viewBox="0 0 158 77" fill="none" xmlns="http://www.w3.org/2000/svg">
<path d="M127.522 42.2498H0.865723L12.6695 0.720703H139.326L127.522 42.2498Z" fill="#EEFF00"/>
<path d="M145.218 76.3249H80.1013L91.9101 34.7958H157.027L145.218 76.3249Z" fill="#EEFF00"/>
<path d="M14.0958 27.9796L15.0853 24.4133H20.7511L19.5607 28.6928C19.3648 29.3659 19.5607 29.6823 20.3141 29.6823H22.3333C22.9662 29.6823 23.2425 29.3659 23.4434 28.6125L23.8402 27.2663C24.237 25.9202 24.0361 25.1668 23.4836 24.4937L19.6813 19.8978C18.2949 18.1549 17.5817 16.1708 18.1744 14.1114L18.531 12.8055C19.837 8.24976 21.9365 6.66254 25.5429 6.66254H28.7526C33.0722 6.66254 34.4183 9.7516 33.3485 13.4786L32.359 17.0046H26.5324L27.7229 12.8055C27.9188 12.0923 27.7229 11.7356 27.0096 11.7356H25.5429C24.9101 11.7356 24.6338 12.1726 24.4329 12.8055L24.0763 14.1114C23.6393 15.5379 23.5991 15.8946 24.4731 16.9644L28.2 21.6005C29.7471 23.5795 30.179 25.6038 29.5864 27.7033L29.3101 28.6526C28.0443 33.128 25.9046 34.7956 22.2982 34.7956H18.6918C14.3721 34.7956 13.026 31.7065 14.0958 27.9796Z" fill="black"/>
<path d="M39.3411 12.4088H34.5844L36.1716 6.86359H51.627L50.0398 12.4088H45.2831L38.9442 34.5999H33.0022L39.3411 12.4088Z" fill="black"/>
<path d="M55.188 6.86359H65.967L60.9743 34.5999H55.2683L56.2578 29.7679H51.8578L50.1551 34.5999H44.4893L55.188 6.86359ZM57.3277 24.3783L59.7437 12.3335H58.0008L53.7615 24.3783H57.3277Z" fill="black"/>
<path d="M69.3724 6.86359H75.1185L73.6921 16.8089L72.3057 23.9011H72.4665L79.3227 6.86359H83.8834L81.2615 23.9011H81.4222L84.2752 16.5326L88.3186 6.86359H94.3411L82.2962 34.5999H75.9976L77.188 23.1075H77.0272L71.7984 34.5999H65.4998L69.3824 6.86359H69.3724Z" fill="black"/>
<path d="M96.9127 6.86359H102.855L99.6853 17.9591H100.439L106.622 6.86359H112.564L104.799 20.7719L104.994 34.5999H99.1679V23.5043H98.0981L94.9286 34.5999H88.9866L96.9127 6.86359Z" fill="black"/>
<path d="M115.934 6.86359H121.876L113.95 34.5999H108.008L115.934 6.86359Z" fill="black"/>
<path d="M101.428 41.2153H109.751C114.071 41.2153 115.417 44.3043 114.347 48.0313L113.87 49.6537C113.157 52.2304 112.087 53.9733 110.66 55.003C111.61 56.1533 111.77 57.8962 111.178 59.9154L110.344 62.8086C109.078 67.2839 106.938 68.9515 103.332 68.9515H93.5073L101.433 41.2153H101.428ZM103.448 63.6825C104.08 63.6825 104.357 63.3259 104.558 62.6127L105.628 58.8104C105.823 58.0971 105.627 57.7405 104.914 57.7405H102.538L100.836 63.6825H103.453H103.448ZM106.657 52.4313C107.29 52.4313 107.566 52.0747 107.767 51.3615L108.797 47.7149C108.993 47.0016 108.797 46.645 108.084 46.645H105.708L104.045 52.4313H106.662H106.657Z" fill="black"/>
<path d="M120.289 41.2149H132.218L130.631 46.7602H124.569L122.981 52.3054H128.607L127.02 57.8507H121.394L119.807 63.3959H125.87L124.282 68.9412H112.353L120.279 41.2049L120.289 41.2149Z" fill="black"/>
<path d="M136.77 46.765H132.013L133.6 41.2197H149.055L147.468 46.765H142.712L136.373 68.956H130.431L136.77 46.765Z" fill="black"/>
<path d="M121.143 27.9797H127.286L125.383 34.5948H119.24L121.143 27.9797Z" fill="black"/>
</svg>
