<svg width="24" height="24" viewBox="0 0 24 24" fill="none" xmlns="http://www.w3.org/2000/svg">
<path fill-rule="evenodd" clip-rule="evenodd" d="M23.9989 12.2729C23.9989 11.4219 23.9209 10.6029 23.7769 9.81787H12.2439V14.4599H18.8339C18.5499 15.9599 17.6879 17.2309 16.3909 18.0819V21.0929H20.3479C22.6629 19.0029 23.9989 15.9279 23.9989 12.2729Z" fill="#4285F4"/>
<path fill-rule="evenodd" clip-rule="evenodd" d="M12.2439 24C15.5499 24 18.3219 22.925 20.3479 21.093L16.3909 18.082C15.2939 18.802 13.8909 19.227 12.2439 19.227C9.05488 19.227 6.35588 17.117 5.39288 14.28H1.30188V17.39C3.31688 21.31 7.45788 24 12.2439 24Z" fill="#34A853"/>
<path fill-rule="evenodd" clip-rule="evenodd" d="M5.39196 14.2799C5.14028 13.546 5.01089 12.7757 5.00896 11.9999C5.00896 11.2099 5.14896 10.4399 5.39296 9.71986V6.60986H1.30296C0.446651 8.27752 0 10.1252 0 11.9999C0 13.8745 0.446651 15.7222 1.30296 17.3899L5.39196 14.2799Z" fill="#FBBC05"/>
<path fill-rule="evenodd" clip-rule="evenodd" d="M12.2439 4.773C14.0419 4.773 15.6559 5.378 16.9239 6.567L20.4369 3.125C18.3169 1.19 15.5439 0 12.2439 0C7.4569 0 3.3159 2.69 1.3009 6.611L5.3919 9.721C6.3549 6.884 9.0549 4.773 12.2439 4.773Z" fill="#EA4335"/>
</svg>
