<svg width="24" height="24" viewBox="0 0 24 24" fill="none" xmlns="http://www.w3.org/2000/svg">
<mask id="mask0_2_5" style="mask-type:luminance" maskUnits="userSpaceOnUse" x="0" y="0" width="24" height="24">
<path d="M0 0H24V24H0V0Z" fill="white"/>
</mask>
<g mask="url(#mask0_2_5)">
<path d="M22.783 1.02393L13.436 7.96493L15.166 3.86993L22.783 1.02393Z" fill="#E2761B" stroke="#E2761B" stroke-linecap="round" stroke-linejoin="round"/>
<path d="M1.20703 1.02393L10.479 8.03093L8.83403 3.86993L1.20703 1.02393ZM19.42 17.1139L16.931 20.9279L22.257 22.3929L23.79 17.1999L19.421 17.1149L19.42 17.1139ZM0.220032 17.1989L1.74203 22.3929L7.06903 20.9279L4.57903 17.1139L0.221032 17.1989H0.220032Z" fill="#E4761B" stroke="#E4761B" stroke-linecap="round" stroke-linejoin="round"/>
<path d="M6.76802 10.6699L5.28302 12.9159L10.572 13.1499L10.384 7.46786L6.76802 10.6699ZM17.222 10.6699L13.559 7.40186L13.437 13.1509L18.716 12.9159L17.222 10.6699ZM7.06802 20.9279L10.243 19.3779L7.50002 17.2359L7.06802 20.9279ZM13.747 19.3779L16.931 20.9279L16.49 17.2359L13.747 19.3779Z" fill="#E4761B" stroke="#E4761B" stroke-linecap="round" stroke-linejoin="round"/>
<path d="M16.931 20.9279L13.747 19.3779L14.001 21.4539L13.973 22.3269L16.931 20.9279ZM7.06799 20.9279L10.028 22.3279L10.008 21.4539L10.243 19.3779L7.06799 20.9279Z" fill="#D7C1B3" stroke="#D7C1B3" stroke-linecap="round" stroke-linejoin="round"/>
<path d="M10.074 15.865L7.42499 15.085L9.29499 14.23L10.074 15.865ZM13.916 15.865L14.696 14.23L16.574 15.085L13.916 15.865Z" fill="#233447" stroke="#233447" stroke-linecap="round" stroke-linejoin="round"/>
<path d="M7.06804 20.928L7.51904 17.114L4.57904 17.199L7.06904 20.929L7.06804 20.928ZM16.48 17.114L16.931 20.928L19.421 17.198L16.481 17.114H16.48ZM18.716 12.915L13.436 13.15L13.926 15.865L14.705 14.23L16.584 15.085L18.716 12.915ZM7.42504 15.085L9.30404 14.23L10.074 15.865L10.572 13.15L5.28304 12.915L7.42504 15.085Z" fill="#CD6116" stroke="#CD6116" stroke-linecap="round" stroke-linejoin="round"/>
<path d="M5.28302 12.915L7.50002 17.236L7.42502 15.086L5.28302 12.916V12.915ZM16.584 15.085L16.49 17.236L18.716 12.916L16.584 15.086V15.085ZM10.572 13.15L10.074 15.865L10.694 19.068L10.835 14.851L10.572 13.151V13.15ZM13.437 13.15L13.184 14.841L13.296 19.068L13.926 15.865L13.436 13.151L13.437 13.15Z" fill="#E4751F" stroke="#E4751F" stroke-linecap="round" stroke-linejoin="round"/>
<path d="M13.925 15.865L13.295 19.068L13.747 19.378L16.49 17.236L16.584 15.086L13.925 15.866V15.865ZM7.42499 15.085L7.49999 17.236L10.243 19.378L10.694 19.068L10.074 15.865L7.42499 15.085Z" fill="#F6851B" stroke="#F6851B" stroke-linecap="round" stroke-linejoin="round"/>
<path d="M13.972 22.327L14 21.454L13.766 21.247H10.224L10.008 21.454L10.028 22.327L7.06799 20.928L8.10099 21.773L10.196 23.229H13.794L15.898 21.773L16.931 20.928L13.972 22.327Z" fill="#C0AD9E" stroke="#C0AD9E" stroke-linecap="round" stroke-linejoin="round"/>
<path d="M13.747 19.3779L13.297 19.0679H10.694L10.244 19.3779L10.009 21.4539L10.225 21.2469H13.766L14.001 21.4539L13.747 19.3779Z" fill="#161616" stroke="#161616" stroke-linecap="round" stroke-linejoin="round"/>
<path d="M23.178 8.41593L23.977 4.58393L22.784 1.02393L13.747 7.72993L17.223 10.6699L22.135 12.1079L23.225 10.8399L22.755 10.5019L23.507 9.81593L22.924 9.36593L23.676 8.79193L23.178 8.41593ZM0.0230103 4.58393L0.82201 8.41593L0.31501 8.79193L1.06601 9.36493L0.49301 9.81493L1.24501 10.5019L0.77501 10.8399L1.85501 12.1079L6.76801 10.6699L10.243 7.72993L1.20701 1.02393L0.0230103 4.58393Z" fill="#763D16" stroke="#763D16" stroke-linecap="round" stroke-linejoin="round"/>
<path d="M22.135 12.1079L17.222 10.6699L18.716 12.9159L16.49 17.2359L19.42 17.1989H23.789L22.135 12.1079ZM6.76801 10.6699L1.85501 12.1079L0.221008 17.1979H4.57901L7.50101 17.2359L5.28401 12.9159L6.76801 10.6699ZM13.437 13.1499L13.747 7.72987L15.175 3.86987H8.83401L10.244 7.72987L10.572 13.1499L10.685 14.8599L10.695 19.0679H13.295L13.315 14.8599L13.437 13.1499Z" fill="#F6851B" stroke="#F6851B" stroke-linecap="round" stroke-linejoin="round"/>
</g>
</svg>
