<svg width="21" height="18" viewBox="0 0 21 18" fill="none" xmlns="http://www.w3.org/2000/svg">
<path d="M19.2097 0.154676C19.2097 0.154676 21.1517 -0.603324 20.9897 1.23668C20.9367 1.99368 20.4497 4.64468 20.0727 7.51269L18.7777 16.0077C18.7777 16.0077 18.6697 17.2517 17.6977 17.4677C16.7277 17.6847 15.2697 16.7107 14.9997 16.4947C14.7847 16.3327 10.9527 13.8977 9.60371 12.7067C9.22671 12.3827 8.79371 11.7327 9.65771 10.9757L15.3237 5.56568C15.9717 4.91568 16.6187 3.40068 13.9207 5.24068L6.36672 10.3807C6.36672 10.3807 5.50272 10.9207 3.88372 10.4347L0.376724 9.35269C0.376724 9.35269 -0.918272 8.54069 1.29372 7.72969C6.68972 5.18468 13.3277 2.59068 19.2097 0.154676Z" fill="#27A7E7"/>
</svg>
